<svg id="shopify-brands" xmlns="http://www.w3.org/2000/svg" viewBox="0 0 60 69.447">
  <defs>
    <style>
      .cls-1 {
        fill: url(#linear-gradient);
      }
    </style>
    <linearGradient id="linear-gradient" x1="0.5" x2="0.5" y2="1" gradientUnits="objectBoundingBox">
      <stop offset="0" stop-color="#95bf47"/>
      <stop offset="0.273" stop-color="#aebc30"/>
      <stop offset="0.51" stop-color="#c8b718"/>
      <stop offset="0.775" stop-color="#e3b000"/>
      <stop offset="1" stop-color="#ffa600"/>
    </linearGradient>
  </defs>
  <path id="shopify-brands-2" data-name="shopify-brands" class="cls-1" d="M57.814,21.435a.644.644,0,0,0-.6-.56c-.274,0-5.106-.112-5.106-.112s-2.964-2.915-4.062-4.036V77.312L65.28,72.943S57.868,21.771,57.814,21.435Zm-13.67-4.708a16.529,16.529,0,0,0-.989-2.466c-1.432-2.8-3.569-4.321-6.095-4.321a2.017,2.017,0,0,0-.549.056c-.055-.112-.165-.168-.219-.28A5.187,5.187,0,0,0,32.065,7.98c-3.292.112-6.583,2.52-9.223,6.837a26.993,26.993,0,0,0-3.678,9.809c-3.788,1.176-6.423,2.018-6.478,2.074-1.92.616-1.976.672-2.194,2.52-.165,1.4-5.212,40.857-5.212,40.857l41.5,7.348V16.054a5.6,5.6,0,0,0-.6.056S45.407,16.334,44.144,16.726Zm-7.576,2.411c-2.194.672-4.612,1.456-6.973,2.186a17.371,17.371,0,0,1,3.514-7,8.847,8.847,0,0,1,2.36-1.793A15.924,15.924,0,0,1,36.568,19.137Zm-4.5-8.855a3.709,3.709,0,0,1,1.978.5,10.478,10.478,0,0,0-2.58,2.018,20.167,20.167,0,0,0-4.337,9.3c-1.978.617-3.954,1.233-5.76,1.793C22.568,18.52,27.014,10.394,32.065,10.282ZM25.7,41.107c.219,3.586,9.5,4.371,10.046,12.833.384,6.67-3.459,11.209-9,11.546A13.33,13.33,0,0,1,16.364,61.9l1.426-6.16s3.678,2.859,6.644,2.635a2.688,2.688,0,0,0,2.58-2.859c-.274-4.707-7.85-4.427-8.344-12.161-.439-6.5,3.733-13.059,12.956-13.676a11.461,11.461,0,0,1,5.38.673l-2.086,8.064a11.263,11.263,0,0,0-5.161-.9C25.7,37.8,25.643,40.434,25.7,41.107ZM38.764,18.464a18.167,18.167,0,0,0-.989-6.109c2.526.5,3.733,3.36,4.283,5.1Q40.575,17.876,38.764,18.464Z" transform="translate(-5.28 -7.977)"/>
</svg>
